STARTFONT 2.1
FONT -sun-arioso-medium-r-normal--10-100-75-75-p-52-adobe-fontspecific
SIZE 10 75 75
FONTBOUNDINGBOX 13 12 -2 -2

STARTPROPERTIES 28
FOUNDRY "sun"
FAMILY_NAME "arioso"
WEIGHT_NAME "medium"
SLANT "r"
SETWIDTH_NAME "normal"
ADD_STYLE_NAME ""
PIXEL_SIZE 10
POINT_SIZE 100
RESOLUTION_X 75
RESOLUTION_Y 75
SPACING "p"
AVERAGE_WIDTH 52
CHARSET_REGISTRY "adobe"
CHARSET_ENCODING "fontspecific"
COPYRIGHT "© 1999 Sun Microsystems, Inc."
RAW_PIXELSIZE 1000
RAW_POINTSIZE 964
RAW_ASCENT 897
RAW_DESCENT 198
RAW_AVERAGE_WIDTH 4987
FACE_NAME "AriosoNormal"
_XMBDFED_INFO "Edited with xmbdfed 2.4."
WEIGHT 10
X_HEIGHT -1
QUAD_WIDTH 5
DEFAULT_CHAR 4
FONT_DESCENT 2
FONT_ASCENT 10
ENDPROPERTIES

CHARS 195

STARTCHAR char32
ENCODING 32
SWIDTH 17 0
DWIDTH 2 0
BBX 0 0 0 0
BITMAP
ENDCHAR

STARTCHAR char33
ENCODING 33
SWIDTH 25 0
DWIDTH 3 0
BBX 3 6 1 0
BITMAP
40
40
40
40
00
80
ENDCHAR

STARTCHAR char34
ENCODING 34
SWIDTH 25 0
DWIDTH 3 0
BBX 3 3 1 5
BITMAP
60
A0
A0
ENDCHAR

STARTCHAR char35
ENCODING 35
SWIDTH 51 0
DWIDTH 6 0
BBX 5 8 0 0
BITMAP
28
28
78
30
30
F8
50
50
ENDCHAR

STARTCHAR char36
ENCODING 36
SWIDTH 43 0
DWIDTH 5 0
BBX 6 9 0 -1
BITMAP
10
7C
50
50
30
28
28
F0
40
ENDCHAR

STARTCHAR char37
ENCODING 37
SWIDTH 68 0
DWIDTH 8 0
BBX 7 7 0 0
BITMAP
28
58
98
B6
5A
2A
2C
ENDCHAR

STARTCHAR char38
ENCODING 38
SWIDTH 43 0
DWIDTH 5 0
BBX 5 6 0 0
BITMAP
10
30
20
D8
90
E8
ENDCHAR

STARTCHAR char39
ENCODING 39
SWIDTH 17 0
DWIDTH 2 0
BBX 1 3 1 5
BITMAP
80
80
80
ENDCHAR

STARTCHAR char40
ENCODING 40
SWIDTH 34 0
DWIDTH 4 0
BBX 3 10 1 -2
BITMAP
20
20
40
40
80
80
80
80
80
80
ENDCHAR

STARTCHAR char41
ENCODING 41
SWIDTH 34 0
DWIDTH 4 0
BBX 4 10 -1 -2
BITMAP
10
10
10
10
10
20
20
40
80
80
ENDCHAR

STARTCHAR char42
ENCODING 42
SWIDTH 34 0
DWIDTH 4 0
BBX 3 4 1 4
BITMAP
40
60
C0
40
ENDCHAR

STARTCHAR char43
ENCODING 43
SWIDTH 60 0
DWIDTH 7 0
BBX 6 6 1 0
BITMAP
20
20
20
FC
20
20
ENDCHAR

STARTCHAR char44
ENCODING 44
SWIDTH 17 0
DWIDTH 2 0
BBX 2 2 0 -1
BITMAP
40
40
ENDCHAR

STARTCHAR char45
ENCODING 45
SWIDTH 34 0
DWIDTH 4 0
BBX 3 1 0 2
BITMAP
60
ENDCHAR

STARTCHAR char46
ENCODING 46
SWIDTH 17 0
DWIDTH 2 0
BBX 1 1 1 0
BITMAP
80
ENDCHAR

STARTCHAR char47
ENCODING 47
SWIDTH 43 0
DWIDTH 5 0
BBX 5 7 0 0
BITMAP
10
10
20
20
40
40
80
ENDCHAR

STARTCHAR char48
ENCODING 48
SWIDTH 43 0
DWIDTH 5 0
BBX 5 6 0 0
BITMAP
78
48
88
88
90
E0
ENDCHAR

STARTCHAR char49
ENCODING 49
SWIDTH 43 0
DWIDTH 5 0
BBX 3 6 1 0
BITMAP
20
E0
20
40
40
40
ENDCHAR

STARTCHAR char50
ENCODING 50
SWIDTH 43 0
DWIDTH 5 0
BBX 5 7 0 0
BITMAP
10
68
48
50
60
C0
F8
ENDCHAR

STARTCHAR char51
ENCODING 51
SWIDTH 43 0
DWIDTH 5 0
BBX 5 7 0 0
BITMAP
30
08
10
20
10
10
E0
ENDCHAR

STARTCHAR char52
ENCODING 52
SWIDTH 43 0
DWIDTH 5 0
BBX 5 6 0 0
BITMAP
08
30
50
50
F8
20
ENDCHAR

STARTCHAR char53
ENCODING 53
SWIDTH 43 0
DWIDTH 5 0
BBX 5 6 0 0
BITMAP
38
40
70
10
10
E0
ENDCHAR

STARTCHAR char54
ENCODING 54
SWIDTH 43 0
DWIDTH 5 0
BBX 5 7 0 0
BITMAP
08
10
20
78
88
90
F0
ENDCHAR

STARTCHAR char55
ENCODING 55
SWIDTH 43 0
DWIDTH 5 0
BBX 4 6 1 0
BITMAP
F0
10
20
40
40
80
ENDCHAR

STARTCHAR char56
ENCODING 56
SWIDTH 43 0
DWIDTH 5 0
BBX 5 7 0 0
BITMAP
30
48
58
30
D0
90
F0
ENDCHAR

STARTCHAR char57
ENCODING 57
SWIDTH 43 0
DWIDTH 5 0
BBX 5 6 0 0
BITMAP
78
48
48
50
20
40
ENDCHAR

STARTCHAR char58
ENCODING 58
SWIDTH 25 0
DWIDTH 3 0
BBX 2 4 0 0
BITMAP
40
00
00
80
ENDCHAR

STARTCHAR char59
ENCODING 59
SWIDTH 25 0
DWIDTH 3 0
BBX 3 5 0 -1
BITMAP
20
00
00
40
40
ENDCHAR

STARTCHAR char60
ENCODING 60
SWIDTH 51 0
DWIDTH 6 0
BBX 6 5 0 0
BITMAP
18
20
C0
30
0C
ENDCHAR

STARTCHAR char61
ENCODING 61
SWIDTH 60 0
DWIDTH 7 0
BBX 7 2 0 2
BITMAP
FE
FE
ENDCHAR

STARTCHAR char62
ENCODING 62
SWIDTH 51 0
DWIDTH 6 0
BBX 5 5 1 0
BITMAP
C0
30
18
60
80
ENDCHAR

STARTCHAR char63
ENCODING 63
SWIDTH 34 0
DWIDTH 4 0
BBX 4 7 1 0
BITMAP
60
50
60
40
80
40
80
ENDCHAR

STARTCHAR char64
ENCODING 64
SWIDTH 7 0
DWIDTH 11 0
BBX 8 8 1 0
BITMAP
1C
22
5B
A5
A5
AD
7E
3C
ENDCHAR

STARTCHAR char65
ENCODING 65
SWIDTH 77 0
DWIDTH 9 0
BBX 10 7 -1 0
BITMAP
00C0
0180
0180
3FC0
4500
8500
F9C0
ENDCHAR

STARTCHAR char66
ENCODING 66
SWIDTH 68 0
DWIDTH 8 0
BBX 8 7 -1 0
BITMAP
3F
45
85
85
89
11
1F
ENDCHAR

STARTCHAR char67
ENCODING 67
SWIDTH 51 0
DWIDTH 6 0
BBX 6 7 0 0
BITMAP
3C
54
64
C8
D8
A0
FC
ENDCHAR

STARTCHAR char68
ENCODING 68
SWIDTH 77 0
DWIDTH 9 0
BBX 10 7 -1 0
BITMAP
3F80
4240
4440
8440
8480
0900
1E00
ENDCHAR

STARTCHAR char69
ENCODING 69
SWIDTH 51 0
DWIDTH 6 0
BBX 6 7 0 0
BITMAP
1C
14
20
40
84
84
78
ENDCHAR

STARTCHAR char70
ENCODING 70
SWIDTH 77 0
DWIDTH 9 0
BBX 12 9 -1 -2
BITMAP
3FF0
6100
4100
87C0
8200
8600
0600
0E00
0800
ENDCHAR

STARTCHAR char71
ENCODING 71
SWIDTH 77 0
DWIDTH 9 0
BBX 9 9 0 -2
BITMAP
1F00
1100
2600
5A00
7200
C200
3F80
0400
1C00
ENDCHAR

STARTCHAR char72
ENCODING 72
SWIDTH 77 0
DWIDTH 9 0
BBX 9 8 0 0
BITMAP
1080
E980
8B00
0C00
1480
7880
A980
CE00
ENDCHAR

STARTCHAR char73
ENCODING 73
SWIDTH 51 0
DWIDTH 6 0
BBX 8 7 -1 0
BITMAP
7F
41
02
02
7C
8E
F8
ENDCHAR

STARTCHAR char74
ENCODING 74
SWIDTH 60 0
DWIDTH 7 0
BBX 8 9 -1 -2
BITMAP
1F
22
42
84
84
88
38
30
70
ENDCHAR

STARTCHAR char75
ENCODING 75
SWIDTH 77 0
DWIDTH 9 0
BBX 9 7 0 0
BITMAP
7C80
0500
0600
0400
0800
1400
E380
ENDCHAR

STARTCHAR char76
ENCODING 76
SWIDTH 68 0
DWIDTH 8 0
BBX 8 7 0 0
BITMAP
07
09
0A
0C
18
10
EF
ENDCHAR

STARTCHAR char77
ENCODING 77
SWIDTH 7 0
DWIDTH 11 0
BBX 12 7 -1 0
BITMAP
01B0
02D0
02A0
05A0
05C0
0940
7260
ENDCHAR

STARTCHAR char78
ENCODING 78
SWIDTH 86 0
DWIDTH 10 0
BBX 11 7 -1 0
BITMAP
1D80
6280
4480
8D00
8D00
9900
19E0
ENDCHAR

STARTCHAR char79
ENCODING 79
SWIDTH 51 0
DWIDTH 6 0
BBX 6 7 0 0
BITMAP
7C
64
84
84
84
88
70
ENDCHAR

STARTCHAR char80
ENCODING 80
SWIDTH 77 0
DWIDTH 9 0
BBX 10 9 -1 -2
BITMAP
3FC0
2240
4440
8440
8840
0980
0E00
1000
1000
ENDCHAR

STARTCHAR char81
ENCODING 81
SWIDTH 51 0
DWIDTH 6 0
BBX 7 9 0 -2
BITMAP
7C
44
84
84
88
90
E0
0A
04
ENDCHAR

STARTCHAR char82
ENCODING 82
SWIDTH 68 0
DWIDTH 8 0
BBX 9 7 -1 0
BITMAP
3F80
2480
4480
8900
8A00
9400
1380
ENDCHAR

STARTCHAR char83
ENCODING 83
SWIDTH 51 0
DWIDTH 6 0
BBX 6 7 0 0
BITMAP
3C
24
30
10
68
88
F0
ENDCHAR

STARTCHAR char84
ENCODING 84
SWIDTH 60 0
DWIDTH 7 0
BBX 10 8 -1 -1
BITMAP
7FC0
4100
8100
4200
7A00
2400
6C00
1000
ENDCHAR

STARTCHAR char85
ENCODING 85
SWIDTH 77 0
DWIDTH 9 0
BBX 10 7 -1 0
BITMAP
3E40
6280
4580
8580
8B00
9500
1DC0
ENDCHAR

STARTCHAR char86
ENCODING 86
SWIDTH 77 0
DWIDTH 9 0
BBX 10 7 -1 0
BITMAP
1E40
6440
4440
8840
8880
8900
0E00
ENDCHAR

STARTCHAR char87
ENCODING 87
SWIDTH 7 0
DWIDTH 11 0
BBX 10 7 0 0
BITMAP
FA40
8E40
1640
1C40
3440
3480
3700
ENDCHAR

STARTCHAR char88
ENCODING 88
SWIDTH 86 0
DWIDTH 10 0
BBX 11 7 -1 0
BITMAP
1EE0
6300
8200
8E40
8C40
1480
6780
ENDCHAR

STARTCHAR char89
ENCODING 89
SWIDTH 77 0
DWIDTH 9 0
BBX 10 9 -1 -2
BITMAP
3CC0
4580
8980
8A80
4B00
5D00
1E00
1C00
1C00
ENDCHAR

STARTCHAR char90
ENCODING 90
SWIDTH 77 0
DWIDTH 9 0
BBX 9 7 0 0
BITMAP
3F80
2900
4A00
5700
7C00
0800
FF80
ENDCHAR

STARTCHAR char91
ENCODING 91
SWIDTH 34 0
DWIDTH 4 0
BBX 4 9 0 -2
BITMAP
10
20
20
40
40
40
80
80
80
ENDCHAR

STARTCHAR char92
ENCODING 92
SWIDTH 25 0
DWIDTH 3 0
BBX 3 8 0 0
BITMAP
80
80
40
40
40
20
20
20
ENDCHAR

STARTCHAR char93
ENCODING 93
SWIDTH 34 0
DWIDTH 4 0
BBX 4 9 -1 -2
BITMAP
10
10
10
10
20
20
40
40
80
ENDCHAR

STARTCHAR char94
ENCODING 94
SWIDTH 0 0
DWIDTH 0 0
BBX 3 1 0 8
BITMAP
40
ENDCHAR

STARTCHAR char95
ENCODING 95
SWIDTH 51 0
DWIDTH 6 0
BBX 6 1 0 -2
BITMAP
FC
ENDCHAR

STARTCHAR char96
ENCODING 96
SWIDTH 0 0
DWIDTH 0 0
BBX 2 1 -1 5
BITMAP
40
ENDCHAR

STARTCHAR char97
ENCODING 97
SWIDTH 43 0
DWIDTH 5 0
BBX 6 4 0 0
BITMAP
70
90
A0
FC
ENDCHAR

STARTCHAR char98
ENCODING 98
SWIDTH 34 0
DWIDTH 4 0
BBX 5 7 0 0
BITMAP
20
60
60
70
B0
A0
D8
ENDCHAR

STARTCHAR char99
ENCODING 99
SWIDTH 34 0
DWIDTH 4 0
BBX 4 4 0 0
BITMAP
60
A0
80
F0
ENDCHAR

STARTCHAR char100
ENCODING 100
SWIDTH 43 0
DWIDTH 5 0
BBX 5 7 0 0
BITMAP
08
08
10
70
90
A0
F8
ENDCHAR

STARTCHAR char101
ENCODING 101
SWIDTH 25 0
DWIDTH 3 0
BBX 4 4 0 0
BITMAP
60
A0
C0
F0
ENDCHAR

STARTCHAR char102
ENCODING 102
SWIDTH 34 0
DWIDTH 4 0
BBX 5 9 -1 -2
BITMAP
18
18
18
30
70
A0
70
40
C0
ENDCHAR

STARTCHAR char103
ENCODING 103
SWIDTH 43 0
DWIDTH 5 0
BBX 5 6 0 -2
BITMAP
78
90
90
F8
40
C0
ENDCHAR

STARTCHAR char104
ENCODING 104
SWIDTH 43 0
DWIDTH 5 0
BBX 5 7 0 0
BITMAP
20
40
40
70
D0
A0
B0
ENDCHAR

STARTCHAR char105
ENCODING 105
SWIDTH 17 0
DWIDTH 2 0
BBX 2 6 0 0
BITMAP
40
00
80
80
80
C0
ENDCHAR

STARTCHAR char106
ENCODING 106
SWIDTH 25 0
DWIDTH 3 0
BBX 4 8 -1 -2
BITMAP
10
00
60
60
20
C0
C0
C0
ENDCHAR

STARTCHAR char107
ENCODING 107
SWIDTH 43 0
DWIDTH 5 0
BBX 5 7 0 0
BITMAP
40
40
40
70
F0
C0
B8
ENDCHAR

STARTCHAR char108
ENCODING 108
SWIDTH 17 0
DWIDTH 2 0
BBX 3 7 0 0
BITMAP
20
20
40
40
80
80
C0
ENDCHAR

STARTCHAR char109
ENCODING 109
SWIDTH 60 0
DWIDTH 7 0
BBX 8 4 -1 0
BITMAP
76
FE
DC
B7
ENDCHAR

STARTCHAR char110
ENCODING 110
SWIDTH 43 0
DWIDTH 5 0
BBX 5 4 0 0
BITMAP
B0
E0
A0
B8
ENDCHAR

STARTCHAR char111
ENCODING 111
SWIDTH 34 0
DWIDTH 4 0
BBX 4 4 0 0
BITMAP
E0
E0
B0
C0
ENDCHAR

STARTCHAR char112
ENCODING 112
SWIDTH 43 0
DWIDTH 5 0
BBX 7 6 -1 -2
BITMAP
78
68
28
FE
40
80
ENDCHAR

STARTCHAR char113
ENCODING 113
SWIDTH 43 0
DWIDTH 5 0
BBX 5 6 0 -2
BITMAP
70
90
A0
F8
70
20
ENDCHAR

STARTCHAR char114
ENCODING 114
SWIDTH 25 0
DWIDTH 3 0
BBX 4 4 0 0
BITMAP
60
C0
E0
80
ENDCHAR

STARTCHAR char115
ENCODING 115
SWIDTH 25 0
DWIDTH 3 0
BBX 3 4 0 0
BITMAP
60
40
40
E0
ENDCHAR

STARTCHAR char116
ENCODING 116
SWIDTH 25 0
DWIDTH 3 0
BBX 3 6 0 0
BITMAP
40
40
C0
80
80
C0
ENDCHAR

STARTCHAR char117
ENCODING 117
SWIDTH 43 0
DWIDTH 5 0
BBX 5 4 0 0
BITMAP
50
50
A0
F8
ENDCHAR

STARTCHAR char118
ENCODING 118
SWIDTH 43 0
DWIDTH 5 0
BBX 4 4 0 0
BITMAP
B0
B0
B0
C0
ENDCHAR

STARTCHAR char119
ENCODING 119
SWIDTH 60 0
DWIDTH 7 0
BBX 7 5 -1 0
BITMAP
04
56
56
96
F8
ENDCHAR

STARTCHAR char120
ENCODING 120
SWIDTH 43 0
DWIDTH 5 0
BBX 6 4 -1 0
BITMAP
7C
1C
70
FC
ENDCHAR

STARTCHAR char121
ENCODING 121
SWIDTH 43 0
DWIDTH 5 0
BBX 5 6 0 -2
BITMAP
50
90
A0
F0
40
C0
ENDCHAR

STARTCHAR char122
ENCODING 122
SWIDTH 34 0
DWIDTH 4 0
BBX 4 4 0 0
BITMAP
70
40
80
F0
ENDCHAR

STARTCHAR char123
ENCODING 123
SWIDTH 25 0
DWIDTH 3 0
BBX 3 9 0 -2
BITMAP
60
40
40
40
80
40
40
40
60
ENDCHAR

STARTCHAR char124
ENCODING 124
SWIDTH 25 0
DWIDTH 3 0
BBX 1 8 1 0
BITMAP
80
80
80
80
80
80
80
80
ENDCHAR

STARTCHAR char125
ENCODING 125
SWIDTH 25 0
DWIDTH 3 0
BBX 3 9 0 -2
BITMAP
C0
40
40
60
20
40
40
40
C0
ENDCHAR

STARTCHAR char126
ENCODING 126
SWIDTH 0 0
DWIDTH 0 0
BBX 4 1 0 8
BITMAP
70
ENDCHAR

STARTCHAR char128
ENCODING 128
SWIDTH 51 0
DWIDTH 6 0
BBX 8 7 -1 0
BITMAP
1F
70
F0
50
40
40
7E
ENDCHAR

STARTCHAR char130
ENCODING 130
SWIDTH 17 0
DWIDTH 2 0
BBX 2 2 0 -1
BITMAP
40
40
ENDCHAR

STARTCHAR char131
ENCODING 131
SWIDTH 0 0
DWIDTH 0 0
BBX 3 1 0 8
BITMAP
40
ENDCHAR

STARTCHAR char132
ENCODING 132
SWIDTH 34 0
DWIDTH 4 0
BBX 3 2 0 -1
BITMAP
A0
A0
ENDCHAR

STARTCHAR char133
ENCODING 133
SWIDTH 86 0
DWIDTH 10 0
BBX 7 1 2 0
BITMAP
92
ENDCHAR

STARTCHAR char134
ENCODING 134
SWIDTH 34 0
DWIDTH 4 0
BBX 4 8 0 -1
BITMAP
20
20
F0
40
40
40
80
80
ENDCHAR

STARTCHAR char136
ENCODING 136
SWIDTH 0 0
DWIDTH 0 0
BBX 3 1 -1 5
BITMAP
60
ENDCHAR

STARTCHAR char139
ENCODING 139
SWIDTH 25 0
DWIDTH 3 0
BBX 2 4 1 1
BITMAP
40
80
80
40
ENDCHAR

STARTCHAR char140
ENCODING 140
SWIDTH 86 0
DWIDTH 10 0
BBX 11 8 -1 0
BITMAP
0040
2EA0
32A0
5380
8200
8420
8C20
73C0
ENDCHAR

STARTCHAR char145
ENCODING 145
SWIDTH 17 0
DWIDTH 2 0
BBX 2 3 1 5
BITMAP
40
80
80
ENDCHAR

STARTCHAR char146
ENCODING 146
SWIDTH 17 0
DWIDTH 2 0
BBX 2 3 1 5
BITMAP
40
80
80
ENDCHAR

STARTCHAR char147
ENCODING 147
SWIDTH 34 0
DWIDTH 4 0
BBX 3 3 1 5
BITMAP
60
A0
A0
ENDCHAR

STARTCHAR char148
ENCODING 148
SWIDTH 34 0
DWIDTH 4 0
BBX 4 3 1 5
BITMAP
50
A0
A0
ENDCHAR

STARTCHAR char149
ENCODING 149
SWIDTH 25 0
DWIDTH 3 0
BBX 3 3 0 2
BITMAP
E0
E0
E0
ENDCHAR

STARTCHAR char150
ENCODING 150
SWIDTH 43 0
DWIDTH 5 0
BBX 5 1 0 2
BITMAP
70
ENDCHAR

STARTCHAR char151
ENCODING 151
SWIDTH 60 0
DWIDTH 7 0
BBX 7 1 0 2
BITMAP
FE
ENDCHAR

STARTCHAR char152
ENCODING 152
SWIDTH 0 0
DWIDTH 0 0
BBX 3 1 -1 5
BITMAP
E0
ENDCHAR

STARTCHAR char153
ENCODING 153
SWIDTH 77 0
DWIDTH 9 0
BBX 8 5 0 2
BITMAP
F9
4F
47
45
4D
ENDCHAR

STARTCHAR char155
ENCODING 155
SWIDTH 25 0
DWIDTH 3 0
BBX 2 4 1 1
BITMAP
80
80
C0
80
ENDCHAR

STARTCHAR char156
ENCODING 156
SWIDTH 51 0
DWIDTH 6 0
BBX 6 4 0 0
BITMAP
7C
98
B0
DC
ENDCHAR

STARTCHAR char159
ENCODING 159
SWIDTH 77 0
DWIDTH 9 0
BBX 10 11 -1 -2
BITMAP
0500
0000
3CC0
4580
8980
8A80
4B00
5D00
1E00
1C00
1C00
ENDCHAR

STARTCHAR char160
ENCODING 160
SWIDTH 17 0
DWIDTH 2 0
BBX 0 0 0 0
BITMAP
ENDCHAR

STARTCHAR char161
ENCODING 161
SWIDTH 25 0
DWIDTH 3 0
BBX 3 7 0 0
BITMAP
20
00
40
40
40
80
80
ENDCHAR

STARTCHAR char162
ENCODING 162
SWIDTH 34 0
DWIDTH 4 0
BBX 4 6 0 -1
BITMAP
20
60
A0
C0
F0
40
ENDCHAR

STARTCHAR char163
ENCODING 163
SWIDTH 60 0
DWIDTH 7 0
BBX 7 8 0 0
BITMAP
08
16
22
20
78
30
20
F0
ENDCHAR

STARTCHAR char164
ENCODING 164
SWIDTH 0 0
DWIDTH 0 0
BBX 2 1 1 8
BITMAP
80
ENDCHAR

STARTCHAR char165
ENCODING 165
SWIDTH 0 0
DWIDTH 0 0
BBX 2 1 1 8
BITMAP
C0
ENDCHAR

STARTCHAR char167
ENCODING 167
SWIDTH 43 0
DWIDTH 5 0
BBX 6 10 -1 -2
BITMAP
08
14
10
28
48
48
28
10
70
40
ENDCHAR

STARTCHAR char168
ENCODING 168
SWIDTH 0 0
DWIDTH 0 0
BBX 3 1 -1 5
BITMAP
A0
ENDCHAR

STARTCHAR char169
ENCODING 169
SWIDTH 68 0
DWIDTH 8 0
BBX 7 7 0 0
BITMAP
38
44
9E
A2
A2
DE
38
ENDCHAR

STARTCHAR char170
ENCODING 170
SWIDTH 0 0
DWIDTH 0 0
BBX 3 1 0 8
BITMAP
A0
ENDCHAR

STARTCHAR char171
ENCODING 171
SWIDTH 34 0
DWIDTH 4 0
BBX 3 3 0 1
BITMAP
60
C0
A0
ENDCHAR

STARTCHAR char172
ENCODING 172
SWIDTH 60 0
DWIDTH 7 0
BBX 7 3 0 0
BITMAP
FE
02
02
ENDCHAR

STARTCHAR char174
ENCODING 174
SWIDTH 68 0
DWIDTH 8 0
BBX 7 7 0 0
BITMAP
38
7C
AA
B2
AA
FE
3C
ENDCHAR

STARTCHAR char176
ENCODING 176
SWIDTH 17 0
DWIDTH 2 0
BBX 3 4 1 3
BITMAP
40
A0
A0
40
ENDCHAR

STARTCHAR char177
ENCODING 177
SWIDTH 43 0
DWIDTH 5 0
BBX 5 6 0 0
BITMAP
20
20
F8
20
20
F8
ENDCHAR

STARTCHAR char180
ENCODING 180
SWIDTH 0 0
DWIDTH 0 0
BBX 2 1 0 5
BITMAP
80
ENDCHAR

STARTCHAR char182
ENCODING 182
SWIDTH 60 0
DWIDTH 7 0
BBX 5 9 1 -2
BITMAP
78
D0
D0
50
50
50
50
50
50
ENDCHAR

STARTCHAR char183
ENCODING 183
SWIDTH 17 0
DWIDTH 2 0
BBX 1 1 1 2
BITMAP
80
ENDCHAR

STARTCHAR char184
ENCODING 184
SWIDTH 0 0
DWIDTH 0 0
BBX 2 3 -2 -2
BITMAP
40
C0
C0
ENDCHAR

STARTCHAR char186
ENCODING 186
SWIDTH 0 0
DWIDTH 0 0
BBX 4 1 0 8
BITMAP
70
ENDCHAR

STARTCHAR char187
ENCODING 187
SWIDTH 34 0
DWIDTH 4 0
BBX 3 3 0 1
BITMAP
60
60
C0
ENDCHAR

STARTCHAR char191
ENCODING 191
SWIDTH 34 0
DWIDTH 4 0
BBX 4 7 0 0
BITMAP
10
00
30
20
40
A0
C0
ENDCHAR

STARTCHAR char192
ENCODING 192
SWIDTH 77 0
DWIDTH 9 0
BBX 10 9 -1 0
BITMAP
0200
0000
00C0
0140
0180
3FC0
4500
8500
F9C0
ENDCHAR

STARTCHAR char193
ENCODING 193
SWIDTH 77 0
DWIDTH 9 0
BBX 10 9 -1 0
BITMAP
0100
0000
00C0
0140
0180
3FC0
4500
8500
F9C0
ENDCHAR

STARTCHAR char194
ENCODING 194
SWIDTH 77 0
DWIDTH 9 0
BBX 10 9 -1 0
BITMAP
0300
0000
00C0
0140
0180
3FC0
4500
8500
F9C0
ENDCHAR

STARTCHAR char195
ENCODING 195
SWIDTH 77 0
DWIDTH 9 0
BBX 10 9 -1 0
BITMAP
0380
0000
00C0
0140
0180
3FC0
4500
8500
F9C0
ENDCHAR

STARTCHAR char196
ENCODING 196
SWIDTH 77 0
DWIDTH 9 0
BBX 11 9 -1 0
BITMAP
00A0
0000
00C0
0140
0180
3FC0
4500
8500
F9E0
ENDCHAR

STARTCHAR char197
ENCODING 197
SWIDTH 77 0
DWIDTH 9 0
BBX 11 10 -1 0
BITMAP
00E0
00A0
00E0
00C0
0140
0180
3FC0
4500
8500
F9E0
ENDCHAR

STARTCHAR char198
ENCODING 198
SWIDTH 7 0
DWIDTH 11 0
BBX 12 8 -1 0
BITMAP
00A0
03D0
03D0
03C0
1F00
6610
8A10
F3E0
ENDCHAR

STARTCHAR char199
ENCODING 199
SWIDTH 51 0
DWIDTH 6 0
BBX 6 9 0 -2
BITMAP
7C
54
64
C8
D8
A0
BC
40
40
ENDCHAR

STARTCHAR char200
ENCODING 200
SWIDTH 51 0
DWIDTH 6 0
BBX 6 9 0 0
BITMAP
08
00
1C
14
20
40
84
84
78
ENDCHAR

STARTCHAR char201
ENCODING 201
SWIDTH 51 0
DWIDTH 6 0
BBX 6 9 0 0
BITMAP
08
00
1C
14
20
40
84
84
78
ENDCHAR

STARTCHAR char202
ENCODING 202
SWIDTH 51 0
DWIDTH 6 0
BBX 6 9 0 0
BITMAP
08
00
1C
14
20
40
84
84
78
ENDCHAR

STARTCHAR char203
ENCODING 203
SWIDTH 51 0
DWIDTH 6 0
BBX 6 9 0 0
BITMAP
14
00
1C
14
20
40
84
84
78
ENDCHAR

STARTCHAR char204
ENCODING 204
SWIDTH 51 0
DWIDTH 6 0
BBX 8 9 -1 0
BITMAP
04
00
7F
41
02
02
7C
8E
F8
ENDCHAR

STARTCHAR char205
ENCODING 205
SWIDTH 51 0
DWIDTH 6 0
BBX 8 9 -1 0
BITMAP
04
00
7F
41
02
02
7C
8E
F8
ENDCHAR

STARTCHAR char206
ENCODING 206
SWIDTH 51 0
DWIDTH 6 0
BBX 8 9 -1 0
BITMAP
04
00
7F
41
02
02
7C
8E
F8
ENDCHAR

STARTCHAR char207
ENCODING 207
SWIDTH 51 0
DWIDTH 6 0
BBX 8 9 -1 0
BITMAP
0A
00
7F
41
02
02
7E
8E
F8
ENDCHAR

STARTCHAR char209
ENCODING 209
SWIDTH 86 0
DWIDTH 10 0
BBX 11 9 -1 0
BITMAP
0380
0000
1DC0
6280
4480
8D00
8D00
9900
19E0
ENDCHAR

STARTCHAR char210
ENCODING 210
SWIDTH 51 0
DWIDTH 6 0
BBX 6 9 0 0
BITMAP
08
00
7C
64
84
84
84
88
70
ENDCHAR

STARTCHAR char211
ENCODING 211
SWIDTH 51 0
DWIDTH 6 0
BBX 6 9 0 0
BITMAP
08
00
7C
64
84
84
84
88
70
ENDCHAR

STARTCHAR char212
ENCODING 212
SWIDTH 51 0
DWIDTH 6 0
BBX 6 9 0 0
BITMAP
08
00
7C
64
84
84
84
98
60
ENDCHAR

STARTCHAR char213
ENCODING 213
SWIDTH 51 0
DWIDTH 6 0
BBX 6 9 0 0
BITMAP
1C
00
7C
64
84
84
84
88
70
ENDCHAR

STARTCHAR char214
ENCODING 214
SWIDTH 51 0
DWIDTH 6 0
BBX 6 9 0 0
BITMAP
18
00
7C
64
84
8C
88
88
70
ENDCHAR

STARTCHAR char216
ENCODING 216
SWIDTH 51 0
DWIDTH 6 0
BBX 6 7 0 0
BITMAP
7C
6C
94
A4
C4
D8
E0
ENDCHAR

STARTCHAR char217
ENCODING 217
SWIDTH 77 0
DWIDTH 9 0
BBX 10 9 -1 0
BITMAP
0200
0000
3E40
6280
4580
8580
8B00
9500
1DC0
ENDCHAR

STARTCHAR char218
ENCODING 218
SWIDTH 77 0
DWIDTH 9 0
BBX 10 9 -1 0
BITMAP
0300
0000
3E40
6280
4580
8580
8B00
9500
1DC0
ENDCHAR

STARTCHAR char219
ENCODING 219
SWIDTH 77 0
DWIDTH 9 0
BBX 10 9 -1 0
BITMAP
0300
0000
3E40
6280
4580
8580
8B00
9500
19C0
ENDCHAR

STARTCHAR char220
ENCODING 220
SWIDTH 77 0
DWIDTH 9 0
BBX 10 9 -1 0
BITMAP
0180
0000
3E40
6280
4580
8580
8B00
9500
1DC0
ENDCHAR

STARTCHAR char223
ENCODING 223
SWIDTH 51 0
DWIDTH 6 0
BBX 7 9 -1 -2
BITMAP
1C
1C
28
38
24
24
FA
C0
80
ENDCHAR

STARTCHAR char224
ENCODING 224
SWIDTH 43 0
DWIDTH 5 0
BBX 6 6 0 0
BITMAP
20
00
70
90
A0
FC
ENDCHAR

STARTCHAR char225
ENCODING 225
SWIDTH 43 0
DWIDTH 5 0
BBX 6 6 0 0
BITMAP
20
00
70
90
A0
FC
ENDCHAR

STARTCHAR char226
ENCODING 226
SWIDTH 43 0
DWIDTH 5 0
BBX 6 6 0 0
BITMAP
30
00
70
90
A0
FC
ENDCHAR

STARTCHAR char227
ENCODING 227
SWIDTH 43 0
DWIDTH 5 0
BBX 6 6 0 0
BITMAP
70
00
70
90
A0
FC
ENDCHAR

STARTCHAR char228
ENCODING 228
SWIDTH 43 0
DWIDTH 5 0
BBX 6 6 0 0
BITMAP
30
00
70
90
90
FC
ENDCHAR

STARTCHAR char229
ENCODING 229
SWIDTH 43 0
DWIDTH 5 0
BBX 6 7 0 0
BITMAP
30
30
30
50
90
A0
FC
ENDCHAR

STARTCHAR char230
ENCODING 230
SWIDTH 51 0
DWIDTH 6 0
BBX 6 4 0 0
BITMAP
7C
98
B0
FC
ENDCHAR

STARTCHAR char231
ENCODING 231
SWIDTH 34 0
DWIDTH 4 0
BBX 4 6 0 -2
BITMAP
70
A0
80
F0
80
80
ENDCHAR

STARTCHAR char232
ENCODING 232
SWIDTH 25 0
DWIDTH 3 0
BBX 4 6 0 0
BITMAP
40
00
60
A0
C0
F0
ENDCHAR

STARTCHAR char233
ENCODING 233
SWIDTH 25 0
DWIDTH 3 0
BBX 4 6 0 0
BITMAP
20
00
60
A0
C0
F0
ENDCHAR

STARTCHAR char234
ENCODING 234
SWIDTH 25 0
DWIDTH 3 0
BBX 4 6 0 0
BITMAP
60
00
60
A0
C0
F0
ENDCHAR

STARTCHAR char235
ENCODING 235
SWIDTH 25 0
DWIDTH 3 0
BBX 4 6 0 0
BITMAP
A0
00
E0
A0
C0
F0
ENDCHAR

STARTCHAR char236
ENCODING 236
SWIDTH 17 0
DWIDTH 2 0
BBX 2 6 0 0
BITMAP
40
00
80
80
80
C0
ENDCHAR

STARTCHAR char237
ENCODING 237
SWIDTH 17 0
DWIDTH 2 0
BBX 3 6 0 0
BITMAP
40
00
80
80
80
C0
ENDCHAR

STARTCHAR char238
ENCODING 238
SWIDTH 17 0
DWIDTH 2 0
BBX 3 6 0 0
BITMAP
60
00
80
80
80
C0
ENDCHAR

STARTCHAR char239
ENCODING 239
SWIDTH 17 0
DWIDTH 2 0
BBX 3 6 0 0
BITMAP
A0
00
80
80
80
E0
ENDCHAR

STARTCHAR char241
ENCODING 241
SWIDTH 43 0
DWIDTH 5 0
BBX 5 6 0 0
BITMAP
70
00
B0
D0
A0
B8
ENDCHAR

STARTCHAR char242
ENCODING 242
SWIDTH 34 0
DWIDTH 4 0
BBX 4 6 0 0
BITMAP
40
00
E0
E0
B0
C0
ENDCHAR

STARTCHAR char243
ENCODING 243
SWIDTH 34 0
DWIDTH 4 0
BBX 4 6 0 0
BITMAP
20
00
E0
E0
B0
C0
ENDCHAR

STARTCHAR char244
ENCODING 244
SWIDTH 34 0
DWIDTH 4 0
BBX 4 6 0 0
BITMAP
20
00
E0
E0
B0
C0
ENDCHAR

STARTCHAR char245
ENCODING 245
SWIDTH 34 0
DWIDTH 4 0
BBX 4 6 0 0
BITMAP
70
00
E0
E0
B0
C0
ENDCHAR

STARTCHAR char246
ENCODING 246
SWIDTH 34 0
DWIDTH 4 0
BBX 4 6 0 0
BITMAP
60
00
E0
E0
B0
C0
ENDCHAR

STARTCHAR char247
ENCODING 247
SWIDTH 43 0
DWIDTH 5 0
BBX 5 3 0 1
BITMAP
20
F8
20
ENDCHAR

STARTCHAR char248
ENCODING 248
SWIDTH 34 0
DWIDTH 4 0
BBX 4 5 0 0
BITMAP
30
D0
E0
E0
C0
ENDCHAR

STARTCHAR char249
ENCODING 249
SWIDTH 43 0
DWIDTH 5 0
BBX 5 6 0 0
BITMAP
20
00
50
50
A0
F8
ENDCHAR

STARTCHAR char250
ENCODING 250
SWIDTH 43 0
DWIDTH 5 0
BBX 5 6 0 0
BITMAP
20
00
50
50
A0
F8
ENDCHAR

STARTCHAR char251
ENCODING 251
SWIDTH 43 0
DWIDTH 5 0
BBX 5 6 0 0
BITMAP
30
00
50
50
A0
F8
ENDCHAR

STARTCHAR char252
ENCODING 252
SWIDTH 43 0
DWIDTH 5 0
BBX 5 6 0 0
BITMAP
50
00
50
50
A0
F8
ENDCHAR

STARTCHAR char255
ENCODING 255
SWIDTH 43 0
DWIDTH 5 0
BBX 5 8 0 -2
BITMAP
50
00
90
90
A0
F0
40
C0
ENDCHAR
ENDFONT
